<?xml version="1.0" encoding="utf-8"?>
<!-- Generator: Adobe Illustrator 16.0.0, SVG Export Plug-In . SVG Version: 6.00 Build 0)  -->
<!DOCTYPE svg PUBLIC "-//W3C//DTD SVG 1.1//EN" "http://www.w3.org/Graphics/SVG/1.1/DTD/svg11.dtd">
<svg version="1.1" id="Layer_1" xmlns="http://www.w3.org/2000/svg" xmlns:xlink="http://www.w3.org/1999/xlink" x="0px" y="0px"
	 width="150px" height="50px" viewBox="0 0 150 50" enable-background="new 0 0 150 50" xml:space="preserve">
<g>
	<path fill="#FFFFFF" d="M14.005,20.057v13.054c0,5.954,0.383,7.647,3.933,7.647c1.529,0,4.861-0.327,4.861-0.327l0.273,3.386
		c0,0-3.66,0.601-5.571,0.601c-5.626,0-7.538-2.13-7.538-9.995V20.057H6.085v-3.551h3.878V8.149h4.042v8.357h8.686v3.551H14.005z"/>
	<path fill="#FFFFFF" d="M27.715,16.506h4.042v3.714c0,0,4.752-3.277,9.996-4.315v4.151c-5.134,1.038-9.941,3.714-9.941,3.714
		v20.046h-4.097V16.506z"/>
	<path fill="#FFFFFF" d="M46.614,5.582h4.097v4.752h-4.097V5.582z M46.614,16.506h4.097v27.311h-4.097V16.506z"/>
	<path fill="#FFFFFF" d="M64.038,20.057v13.054c0,5.954,0.383,7.647,3.933,7.647c1.529,0,4.862-0.327,4.862-0.327l0.272,3.386
		c0,0-3.66,0.601-5.571,0.601c-5.626,0-7.538-2.13-7.538-9.995V20.057h-3.878v-3.551h3.878V8.149h4.042v8.357h8.686v3.551H64.038z"
		/>
	<path fill="#FFFFFF" d="M77.748,16.506h4.041v3.714c0,0,4.752-3.277,9.996-4.315v4.151c-5.135,1.038-9.941,3.714-9.941,3.714
		v20.046h-4.096V16.506z"/>
	<path fill="#FFFFFF" d="M96.646,5.582h4.096v4.752h-4.096V5.582z M96.646,16.506h4.096v27.311h-4.096V16.506z"/>
	<path fill="#FFFFFF" d="M110.355,16.506l6.664,10.707l6.664-10.707h4.479l-8.686,13.546l8.631,13.765h-4.479l-6.609-10.651
		l-6.664,10.651h-4.479l8.574-13.655l-8.574-13.656H110.355z"/>
	<polygon fill="#FFBF00" points="143.914,15.531 142.098,18.729 138.42,18.772 136.557,15.616 138.373,12.416 142.051,12.374 	"/>
	<polygon fill="#FFBF00" points="137.732,19.177 135.916,22.376 132.238,22.419 130.377,19.262 132.191,16.063 135.871,16.021 	"/>
	<polygon fill="#FFBF00" points="137.77,12.177 135.953,15.376 132.275,15.418 130.412,12.262 132.229,9.062 135.906,9.02 	"/>
</g>
</svg>
